<svg width="22" height="22" viewBox="0 0 22 22" fill="none" xmlns="http://www.w3.org/2000/svg">
<path fill-rule="evenodd" clip-rule="evenodd" d="M7.94475 8.63224C7.63381 8.63224 7.32592 8.69349 7.03865 8.81248C6.75138 8.93147 6.49036 9.10588 6.2705 9.32574C6.05063 9.54561 5.87622 9.80663 5.75723 10.0939C5.63824 10.3812 5.577 10.6891 5.577 11C5.577 11.3109 5.63824 11.6188 5.75723 11.9061C5.87622 12.1934 6.05063 12.4544 6.2705 12.6742C6.49036 12.8941 6.75138 13.0685 7.03865 13.1875C7.32592 13.3065 7.63381 13.3677 7.94475 13.3677H10.3125V8.63224H7.94475ZM10.3125 7.25724H7.94475C7.31666 7.25724 6.7143 7.00774 6.27017 6.56361C5.82605 6.11949 5.57654 5.51712 5.57654 4.88904C5.57654 4.26095 5.82605 3.65859 6.27017 3.21446C6.7143 2.77034 7.31666 2.52083 7.94475 2.52083H10.3125V7.25724ZM11.6875 2.52083V7.25724H14.0552C14.6753 7.24505 15.2658 6.99018 15.6999 6.54738C16.1341 6.10458 16.3773 5.50918 16.3773 4.88904C16.3773 4.2689 16.1341 3.67349 15.6999 3.23069C15.2658 2.78789 14.6753 2.53303 14.0552 2.52083H11.6875ZM14.0552 8.63133C13.4337 8.63125 12.8371 8.87554 12.3941 9.31149C11.9512 9.74743 11.6974 10.3401 11.6875 10.9615V11.0376C11.6951 11.5042 11.8404 11.9581 12.1051 12.3424C12.3699 12.7267 12.7422 13.0241 13.1755 13.1975C13.6088 13.3708 14.0836 13.4122 14.5403 13.3165C14.9971 13.2209 15.4153 12.9924 15.7426 12.6598C16.0699 12.3272 16.2916 11.9052 16.3799 11.447C16.4682 10.9888 16.4191 10.5147 16.2388 10.0843C16.0586 9.6539 15.7551 9.28636 15.3666 9.02785C14.9781 8.76934 14.5219 8.63139 14.0552 8.63133ZM7.94475 14.7427C7.47623 14.7426 7.01818 14.8813 6.62854 15.1415C6.23889 15.4017 5.93515 15.7715 5.75573 16.2043C5.57631 16.6371 5.52928 17.1134 5.62057 17.573C5.71186 18.0325 5.93738 18.4546 6.26861 18.786C6.59984 19.1173 7.02189 19.343 7.48139 19.4345C7.94089 19.526 8.4172 19.4791 8.85007 19.2999C9.28294 19.1206 9.65293 18.817 9.91324 18.4275C10.1736 18.0379 10.3125 17.5799 10.3125 17.1114V14.7427H7.94475Z" fill="black"/>
</svg>
