<svg width="22" height="22" viewBox="0 0 22 22" fill="none" xmlns="http://www.w3.org/2000/svg">
<mask id="path-1-inside-1_3_36" fill="white">
<path d="M19.1462 12.1363V13.1998H20.9619C21.3345 13.1998 21.9718 12.9131 21.9931 12.1039V11.6921C21.9931 11.0046 21.4631 10.5963 20.9619 10.5963H20.0557V10.1019H21.8494V9.02738H20.1272C19.6831 9.02738 19.0891 9.41787 19.0891 10.1411V10.5137C19.0891 11.237 19.6762 11.6096 20.1272 11.6096C21.3771 11.6165 19.8261 11.6096 20.9832 11.6096V12.1287L19.1462 12.1363ZM9.4105 11.875C9.4105 11.875 10.3847 11.7856 10.3847 10.4567C10.3847 9.12431 9.20631 8.99919 9.20631 8.99919H7.08262V13.1991H8.14962V12.1858L9.07362 13.1991H10.6494L9.4105 11.875ZM8.99869 11.0156H8.15031V10.0559H9.00625C9.00625 10.0559 9.24619 10.1487 9.24619 10.5323C9.24619 10.9159 8.99938 11.0156 8.99938 11.0156H8.99869ZM13.0157 9.02875H11.9343C11.1609 9.02875 10.8996 9.77331 10.8996 10.1246V13.2005H11.9845V12.4662H13.0013V13.2005H14.0504V10.1246C14.0504 9.2295 13.2839 9.02875 13.0157 9.02875ZM13.0013 11.2734H11.9769V10.2566C11.9769 10.2566 11.9769 10.0236 12.3173 10.0236H12.6899C12.9869 10.0236 12.9944 10.2566 12.9944 10.2566V11.2734H13.0013ZM14.5448 9.02875H15.6729V13.2005H14.5448V9.02875ZM17.2556 12.1225V9.02875H16.1349V13.2005H18.7743V12.1225H17.2556ZM0.3905 13.1998H4.77675C4.77675 13.1998 3.93869 9.14287 6.71756 7.49563C7.32256 7.18419 9.24894 6.01681 12.4073 8.49113C12.5043 8.40519 12.6005 8.33369 12.6005 8.33369C12.6005 8.33369 9.71094 5.27569 6.4955 5.616C4.87713 5.77 2.88956 7.33131 1.72219 9.39381C0.554813 11.4563 0.389812 13.1998 0.389812 13.1998H0.3905ZM0.3905 13.1998H4.77675C4.77675 13.1998 3.93869 9.14287 6.71756 7.49563C7.32256 7.18419 9.24894 6.01681 12.4073 8.49113C12.5043 8.40519 12.6005 8.33369 12.6005 8.33369C12.6005 8.33369 9.71094 5.27569 6.4955 5.616C4.87713 5.77 2.88956 7.33131 1.72219 9.39381C0.554813 11.4563 0.389812 13.1998 0.389812 13.1998H0.3905ZM0.3905 13.1998H4.77675C4.77675 13.1998 3.93869 9.14287 6.71756 7.49563C7.32256 7.18419 9.24894 6.01681 12.4073 8.49113C12.5043 8.40519 12.6005 8.33369 12.6005 8.33369C12.6005 8.33369 9.71094 5.27569 6.4955 5.616C4.87369 5.77 2.88269 7.33131 1.71531 9.39381C0.551375 11.4563 0.3905 13.1998 0.3905 13.1998ZM9.53219 5.94875L9.55694 5.55138C9.50675 5.5225 9.36719 5.451 9.01656 5.34719L8.99525 5.73425C9.17812 5.79842 9.3571 5.86946 9.53219 5.94875ZM9.00556 7.19519L8.98425 7.56781C9.16713 7.57469 9.34931 7.59669 9.53219 7.63931L9.55694 7.27425C9.37514 7.2355 9.19093 7.20909 9.00556 7.19519ZM6.94994 5.35819H7.00356L6.89288 5C6.721 5 6.54569 5.011 6.35938 5.03231L6.46663 5.38294C6.6275 5.36598 6.7886 5.35773 6.94994 5.35819ZM7.21531 7.52794L7.34456 7.93287C7.49959 7.85125 7.66128 7.78294 7.82787 7.72869L7.70619 7.33819C7.51644 7.39525 7.35556 7.45987 7.21531 7.52794ZM4.69425 5.97762L4.44331 5.56925C4.30375 5.64831 4.16075 5.73012 4.01019 5.82362L4.268 6.23544C4.40612 6.14311 4.54835 6.05708 4.69425 5.97762ZM5.83275 8.62725L6.10156 9.0535C6.19438 8.90638 6.30575 8.77094 6.42744 8.63481L6.1765 8.234C6.05208 8.3564 5.93717 8.4874 5.83275 8.62725ZM5.02769 10.5254L5.47869 10.9049C5.50069 10.6726 5.53896 10.4423 5.5935 10.214L5.19613 9.87713C5.12119 10.0958 5.07444 10.3137 5.02769 10.5254ZM2.596 7.72869L2.19863 7.36362C2.05563 7.51075 1.91606 7.65719 1.79025 7.80431L2.2165 8.19481C2.33475 8.03394 2.45987 7.87581 2.596 7.72938V7.72869ZM0.916437 10.3604L0.279125 10.1136C0.171875 10.368 0.0570625 10.6616 0 10.8224L0.637312 11.0693C0.71225 10.8685 0.827062 10.5784 0.916437 10.3604ZM4.94519 12.0221C4.95619 12.3336 4.98438 12.5879 5.00981 12.7667L5.67944 13.0176C5.62295 12.7642 5.57753 12.5084 5.54331 12.2511L4.94519 12.0221Z"/>
</mask>
<path d="M4.77675 13.1998V13.6998H5.39059L5.26641 13.0987L4.77675 13.1998ZM6.71756 7.49563L6.48872 7.05107L6.47544 7.0579L6.4626 7.06551L6.71756 7.49563ZM12.4073 8.49113L12.099 8.88472L12.4271 9.14178L12.739 8.86527L12.4073 8.49113ZM12.6005 8.33369L12.8987 8.73506L13.3505 8.3994L12.9639 7.99028L12.6005 8.33369ZM6.4955 5.616L6.54287 6.11378L6.54812 6.11322L6.4955 5.616ZM0.389812 13.1998L-0.107963 13.1527L-0.15974 13.6998H0.389812V13.1998ZM0.3905 13.6998H4.77675V12.6998H0.3905V13.6998ZM4.77675 13.1998C5.26641 13.0987 5.26644 13.0988 5.26647 13.099C5.26648 13.099 5.26651 13.0991 5.26652 13.0992C5.26654 13.0993 5.26655 13.0993 5.26655 13.0993C5.26655 13.0993 5.2665 13.0991 5.2664 13.0986C5.2662 13.0976 5.26581 13.0956 5.26526 13.0928C5.26414 13.087 5.26234 13.0776 5.26 13.0647C5.2553 13.0388 5.24842 12.9989 5.2404 12.9466C5.22436 12.8418 5.20388 12.6879 5.18736 12.4971C5.1542 12.114 5.1377 11.59 5.20192 11.0216C5.3316 9.87371 5.77655 8.63468 6.97252 7.92574L6.4626 7.06551C4.8797 8.00382 4.35425 9.61688 4.20824 10.9093C4.13461 11.561 4.15395 12.1542 4.19109 12.5833C4.20972 12.7986 4.233 12.9744 4.25193 13.098C4.26141 13.1598 4.26981 13.2087 4.27604 13.243C4.27915 13.2602 4.28172 13.2738 4.28361 13.2835C4.28455 13.2883 4.28532 13.2922 4.28591 13.2952C4.2862 13.2966 4.28645 13.2978 4.28665 13.2988C4.28674 13.2993 4.28683 13.2997 4.2869 13.3001C4.28694 13.3003 4.28699 13.3005 4.28701 13.3006C4.28705 13.3008 4.28709 13.301 4.77675 13.1998ZM6.94641 7.94018C7.2553 7.78117 7.79336 7.46716 8.6162 7.44859C9.43096 7.4302 10.5922 7.7043 12.099 8.88472L12.7157 8.09753C11.0641 6.80363 9.68291 6.42426 8.59364 6.44885C7.51246 6.47325 6.78482 6.89864 6.48872 7.05107L6.94641 7.94018ZM12.739 8.86527C12.7782 8.83049 12.8188 8.79736 12.8504 8.77233C12.866 8.76003 12.8788 8.75017 12.8874 8.74361C12.8917 8.74034 12.8949 8.73791 12.8968 8.73645C12.8978 8.73571 12.8984 8.73522 12.8988 8.73498C12.8989 8.73487 12.899 8.73481 12.899 8.73482C12.899 8.73483 12.8989 8.73485 12.8989 8.73489C12.8989 8.73491 12.8988 8.73493 12.8988 8.73496C12.8988 8.73497 12.8988 8.73499 12.8987 8.73501C12.8987 8.73501 12.8987 8.73503 12.8987 8.73503C12.8987 8.73504 12.8987 8.73506 12.6005 8.33369C12.3023 7.93232 12.3023 7.93233 12.3023 7.93235C12.3023 7.93235 12.3023 7.93237 12.3023 7.93238C12.3022 7.9324 12.3022 7.93242 12.3022 7.93244C12.3021 7.93249 12.302 7.93254 12.302 7.93259C12.3018 7.9327 12.3017 7.93282 12.3015 7.93297C12.3011 7.93325 12.3006 7.93361 12.3 7.93404C12.2989 7.93489 12.2974 7.93602 12.2955 7.93741C12.2918 7.94019 12.2868 7.94402 12.2805 7.9488C12.268 7.95832 12.2507 7.97171 12.2301 7.98803C12.1894 8.02024 12.1333 8.06583 12.0756 8.11698L12.739 8.86527ZM12.6005 8.33369C12.9639 7.99028 12.9638 7.99016 12.9637 7.99003C12.9636 7.98997 12.9635 7.98983 12.9634 7.98971C12.9632 7.98947 12.9629 7.98919 12.9626 7.98886C12.9619 7.98819 12.9611 7.98735 12.9601 7.98632C12.9582 7.98426 12.9555 7.98147 12.9522 7.97798C12.9454 7.97101 12.9359 7.96121 12.9237 7.94881C12.8993 7.92399 12.8641 7.8887 12.8187 7.84452C12.7278 7.7562 12.596 7.63212 12.4283 7.48512C12.0933 7.19167 11.6118 6.80396 11.024 6.4265C9.86145 5.68002 8.21691 4.93102 6.44288 5.11878L6.54812 6.11322C7.98953 5.96067 9.39749 6.57051 10.4836 7.26795C11.0201 7.61246 11.4619 7.96798 11.7693 8.23726C11.9226 8.37163 12.0417 8.48381 12.1215 8.56139C12.1613 8.60016 12.1913 8.63023 12.2108 8.65005C12.2205 8.65996 12.2277 8.66729 12.2321 8.67187C12.2343 8.67415 12.2358 8.67575 12.2366 8.67663C12.2371 8.67707 12.2373 8.67733 12.2374 8.67741C12.2374 8.67744 12.2374 8.67744 12.2374 8.67739C12.2373 8.67736 12.2373 8.67729 12.2373 8.67727C12.2372 8.67719 12.2371 8.67709 12.6005 8.33369ZM6.44814 5.11825C5.51018 5.2075 4.51946 5.69428 3.62984 6.39682C2.73363 7.10457 1.90246 8.06024 1.28705 9.14753L2.15732 9.6401C2.70929 8.66489 3.45559 7.80865 4.2496 7.18162C5.0502 6.54937 5.86245 6.1785 6.54286 6.11375L6.44814 5.11825ZM1.28705 9.14753C0.678862 10.2221 0.331375 11.214 0.135498 11.94C0.0374809 12.3033 -0.0228392 12.6009 -0.0589083 12.8103C-0.0769489 12.915 -0.0889423 12.9978 -0.0965586 13.0557C-0.100367 13.0847 -0.103083 13.1075 -0.104914 13.1238C-0.10583 13.132 -0.106524 13.1385 -0.107024 13.1433C-0.107274 13.1457 -0.107475 13.1477 -0.10763 13.1493C-0.107708 13.1501 -0.107774 13.1507 -0.10783 13.1513C-0.107857 13.1516 -0.107882 13.1519 -0.107905 13.1521C-0.107916 13.1522 -0.10793 13.1524 -0.107936 13.1524C-0.10795 13.1526 -0.107963 13.1527 0.389812 13.1998C0.887588 13.2469 0.887576 13.247 0.887565 13.2472C0.887562 13.2472 0.887551 13.2473 0.887545 13.2474C0.887533 13.2475 0.887523 13.2476 0.887516 13.2477C0.887501 13.2478 0.887497 13.2479 0.887503 13.2478C0.887515 13.2477 0.887569 13.2472 0.887667 13.2462C0.887863 13.2443 0.888237 13.2408 0.888815 13.2356C0.889971 13.2254 0.89194 13.2087 0.894923 13.186C0.900891 13.1406 0.910908 13.071 0.926576 12.98C0.957925 12.7981 1.01182 12.5309 1.10097 12.2005C1.27944 11.5391 1.59814 10.6281 2.15732 9.6401L1.28705 9.14753ZM0.389812 13.6998H0.3905V12.6998H0.389812V13.6998ZM19.1462 12.1363L19.1421 11.1363L18.1462 11.1404V12.1363H19.1462ZM19.1462 13.1998H18.1462V14.1998H19.1462V13.1998ZM21.9931 12.1039L22.9928 12.1303L22.9931 12.1171V12.1039H21.9931ZM20.0557 10.5963H19.0557V11.5963H20.0557V10.5963ZM20.0557 10.1019V9.10194H19.0557V10.1019H20.0557ZM21.8494 10.1019V11.1019H22.8494V10.1019H21.8494ZM21.8494 9.02738H22.8494V8.02738H21.8494V9.02738ZM20.1272 11.6096L20.1327 10.6096H20.1272V11.6096ZM20.9832 11.6096H21.9832V10.6096H20.9832V11.6096ZM20.9832 12.1287L20.9873 13.1287L21.9832 13.1246V12.1287H20.9832ZM9.4105 11.875L9.31914 10.8792L7.28403 11.0659L8.68028 12.5582L9.4105 11.875ZM9.20631 8.99919L9.3119 8.00478L9.25926 7.99919H9.20631V8.99919ZM7.08262 8.99919V7.99919H6.08262V8.99919H7.08262ZM7.08262 13.1991H6.08262V14.1991H7.08262V13.1991ZM8.14962 13.1991V14.1991H9.14962V13.1991H8.14962ZM8.14962 12.1858L8.88857 11.512L7.14962 9.60484V12.1858H8.14962ZM9.07362 13.1991L8.33468 13.8729L8.63214 14.1991H9.07362V13.1991ZM10.6494 13.1991V14.1991H12.9544L11.3796 12.5159L10.6494 13.1991ZM8.15031 11.0156H7.15031V12.0156H8.15031V11.0156ZM8.15031 10.0559V9.05587H7.15031V10.0559H8.15031ZM9.00625 10.0559L9.36702 9.12322L9.19292 9.05587H9.00625V10.0559ZM8.99938 11.0156V12.0156H9.1937L9.37388 11.9428L8.99938 11.0156ZM10.8996 13.2005H9.89962V14.2005H10.8996V13.2005ZM11.9845 13.2005V14.2005H12.9845V13.2005H11.9845ZM11.9845 12.4662V11.4662H10.9845V12.4662H11.9845ZM13.0013 12.4662H14.0013V11.4662H13.0013V12.4662ZM13.0013 13.2005H12.0013V14.2005H13.0013V13.2005ZM14.0504 13.2005V14.2005H15.0504V13.2005H14.0504ZM11.9769 11.2734H10.9769V12.2734H11.9769V11.2734ZM11.9769 10.2566L10.9769 10.2566V10.2566H11.9769ZM12.9944 10.2566H13.9944V10.2404L13.9939 10.2242L12.9944 10.2566ZM12.9944 11.2734H11.9944V12.2734H12.9944V11.2734ZM14.5448 9.02875V8.02875H13.5448V9.02875H14.5448ZM15.6729 9.02875H16.6729V8.02875H15.6729V9.02875ZM15.6729 13.2005V14.2005H16.6729V13.2005H15.6729ZM14.5448 13.2005H13.5448V14.2005H14.5448V13.2005ZM17.2556 12.1225H16.2556V13.1225H17.2556V12.1225ZM17.2556 9.02875H18.2556V8.02875H17.2556V9.02875ZM16.1349 9.02875V8.02875H15.1349V9.02875H16.1349ZM16.1349 13.2005H15.1349V14.2005H16.1349V13.2005ZM18.7743 13.2005V14.2005H19.7743V13.2005H18.7743ZM18.7743 12.1225H19.7743V11.1225H18.7743V12.1225ZM1.71531 9.39381L0.845041 8.90124L0.84442 8.90234L1.71531 9.39381ZM9.53219 5.94875L9.11964 6.85969L10.4401 7.45771L10.5303 6.01091L9.53219 5.94875ZM9.55694 5.55138L10.555 5.61354L10.5936 4.9941L10.0556 4.6846L9.55694 5.55138ZM9.01656 5.34719L9.30046 4.38833L8.08762 4.02924L8.01807 5.29221L9.01656 5.34719ZM8.99525 5.73425L7.99676 5.67927L7.95547 6.42919L8.66416 6.67785L8.99525 5.73425ZM9.00556 7.19519L9.08035 6.19799L8.06532 6.12187L8.00719 7.13808L9.00556 7.19519ZM8.98425 7.56781L7.98588 7.51071L7.92765 8.5288L8.94668 8.56711L8.98425 7.56781ZM9.53219 7.63931L9.30519 8.61321L10.4504 8.88013L10.5299 7.70695L9.53219 7.63931ZM9.55694 7.27425L10.5546 7.34189L10.6133 6.47693L9.76539 6.29622L9.55694 7.27425ZM6.94994 5.35819L6.9471 6.35819H6.94994V5.35819ZM7.00356 5.35819V6.35819H8.35924L7.95898 5.06294L7.00356 5.35819ZM6.89288 5L7.8483 4.70475L7.63051 4H6.89288V5ZM6.35938 5.03231L6.24573 4.03879L5.05152 4.1754L5.40311 5.32482L6.35938 5.03231ZM6.46663 5.38294L5.51036 5.67544L5.75152 6.46386L6.57146 6.37743L6.46663 5.38294ZM7.21531 7.52794L6.77871 6.62828L5.9992 7.00658L6.26266 7.83201L7.21531 7.52794ZM7.34456 7.93287L6.39191 8.23695L6.75471 9.37358L7.81044 8.81772L7.34456 7.93287ZM7.82787 7.72869L8.13753 8.67954L9.07633 8.3738L8.78259 7.43118L7.82787 7.72869ZM7.70619 7.33819L8.66091 7.04068L8.36635 6.09542L7.4182 6.38055L7.70619 7.33819ZM4.69425 5.97762L5.17251 6.85585L6.09793 6.35188L5.54625 5.45409L4.69425 5.97762ZM4.44331 5.56925L5.29531 5.04571L4.79008 4.22349L3.95041 4.69917L4.44331 5.56925ZM4.01019 5.82362L3.48263 4.9741L2.63002 5.50358L3.16259 6.35426L4.01019 5.82362ZM4.268 6.23544L3.4204 6.76607L3.96715 7.63942L4.82376 7.06678L4.268 6.23544ZM5.83275 8.62725L5.03146 8.02897L4.6204 8.57952L4.9869 9.16068L5.83275 8.62725ZM6.10156 9.0535L5.25572 9.58693L6.10143 10.928L6.94733 9.58705L6.10156 9.0535ZM6.42744 8.63481L7.17297 9.30128L7.67377 8.74106L7.27503 8.10416L6.42744 8.63481ZM6.1765 8.234L7.02409 7.70335L6.36314 6.64763L5.47521 7.52112L6.1765 8.234ZM5.02769 10.5254L4.0512 10.3098L3.92071 10.9009L4.38384 11.2906L5.02769 10.5254ZM5.47869 10.9049L4.83484 11.6701L6.29444 12.8983L6.47424 10.9992L5.47869 10.9049ZM5.5935 10.214L6.56612 10.4464L6.70896 9.84865L6.24015 9.45121L5.5935 10.214ZM5.19613 9.87713L5.84278 9.11434L4.72521 8.16692L4.25015 9.55288L5.19613 9.87713ZM2.596 7.72869H3.596V7.28944L3.27253 6.99227L2.596 7.72869ZM2.19863 7.36362L2.87516 6.62721L2.15918 5.96945L1.48154 6.66664L2.19863 7.36362ZM1.79025 7.80431L1.03024 7.1544L0.402174 7.88886L1.11474 8.54166L1.79025 7.80431ZM2.2165 8.19481L1.54099 8.93216L2.36244 9.68472L3.02225 8.78707L2.2165 8.19481ZM2.596 7.72938L3.32843 8.41022L3.596 8.12238V7.72938H2.596ZM0.916437 10.3604L1.84166 10.7399L2.22863 9.79624L1.27757 9.42792L0.916437 10.3604ZM0.279125 10.1136L0.640259 9.18111L-0.265124 8.83048L-0.642323 9.72512L0.279125 10.1136ZM0 10.8224L-0.942469 10.4881L-1.26733 11.404L-0.361134 11.755L0 10.8224ZM0.637312 11.0693L0.276178 12.0018L1.22015 12.3673L1.57417 11.419L0.637312 11.0693ZM4.94519 12.0221L5.30266 11.0882L3.89251 10.5485L3.94581 12.0574L4.94519 12.0221ZM5.00981 12.7667L4.01979 12.9076L4.10337 13.4949L4.6589 13.7031L5.00981 12.7667ZM5.67944 13.0176L5.32852 13.954L7.05709 14.6018L6.65548 12.8001L5.67944 13.0176ZM5.54331 12.2511L6.53459 12.1193L6.45621 11.5297L5.90078 11.3171L5.54331 12.2511ZM18.1462 12.1363V13.1998H20.1462V12.1363H18.1462ZM19.1462 14.1998H20.9619V12.1998H19.1462V14.1998ZM20.9619 14.1998C21.3696 14.1998 21.8506 14.054 22.2473 13.7253C22.677 13.3693 22.9745 12.8247 22.9928 12.1303L20.9935 12.0776C20.9916 12.1473 20.9781 12.1752 20.9765 12.1784C20.9746 12.1823 20.9737 12.1832 20.9712 12.1853C20.9666 12.1892 20.9575 12.1948 20.9457 12.1989C20.9404 12.2008 20.9373 12.2013 20.9377 12.2013C20.9381 12.2012 20.94 12.2009 20.9436 12.2005C20.9472 12.2002 20.9533 12.1998 20.9619 12.1998V14.1998ZM22.9931 12.1039V11.6921H20.9931V12.1039H22.9931ZM22.9931 11.6921C22.9931 10.4176 21.9799 9.59625 20.9619 9.59625V11.5963C20.9523 11.5963 20.9514 11.5945 20.9567 11.5967C20.9616 11.5987 20.9671 11.6021 20.9716 11.6065C20.9754 11.6101 20.9791 11.6149 20.9825 11.6229C20.9856 11.6302 20.9931 11.6508 20.9931 11.6921H22.9931ZM20.9619 9.59625H20.0557V11.5963H20.9619V9.59625ZM21.0557 10.5963V10.1019H19.0557V10.5963H21.0557ZM20.0557 11.1019H21.8494V9.10194H20.0557V11.1019ZM22.8494 10.1019V9.02738H20.8494V10.1019H22.8494ZM21.8494 8.02738H20.1272V10.0274H21.8494V8.02738ZM20.1272 8.02738C19.2092 8.02738 18.0891 8.79034 18.0891 10.1411H20.0891C20.0891 10.1004 20.0968 10.0812 20.0998 10.0744C20.1036 10.0661 20.1095 10.0574 20.1194 10.0484C20.1304 10.0382 20.1432 10.0305 20.1535 10.0264C20.1656 10.0215 20.1587 10.0274 20.1272 10.0274V8.02738ZM18.0891 10.1411V10.5137H20.0891V10.1411H18.0891ZM18.0891 10.5137C18.0891 11.8823 19.2218 12.6096 20.1272 12.6096V10.6096C20.1488 10.6096 20.1505 10.6133 20.1383 10.6085C20.1277 10.6044 20.1171 10.5978 20.1095 10.5909C20.1031 10.5852 20.1003 10.5807 20.0983 10.5764C20.097 10.5736 20.0891 10.5562 20.0891 10.5137H18.0891ZM20.1217 12.6096C20.4341 12.6113 20.571 12.6122 20.6189 12.6125C20.6311 12.6126 20.637 12.6126 20.6386 12.6126C20.6416 12.6127 20.6371 12.6126 20.6329 12.6126C20.6304 12.6125 20.6167 12.6122 20.6055 12.6118C19.6476 11.6101 20.6259 10.6129 20.641 10.6127C20.6438 10.6127 20.6477 10.6127 20.6489 10.6127C20.6495 10.6127 20.6506 10.6127 20.651 10.6127C20.6517 10.6127 20.6522 10.6127 20.6523 10.6127C20.6526 10.6127 20.6527 10.6127 20.6528 10.6127C20.6528 10.6127 20.6526 10.6127 20.6519 10.6127C20.6513 10.6127 20.6504 10.6127 20.6493 10.6127C20.6404 10.6126 20.6204 10.6125 20.5999 10.6123C20.5897 10.6121 20.5798 10.612 20.5713 10.6119C20.5671 10.6119 20.5636 10.6118 20.5607 10.6118C20.5593 10.6118 20.5582 10.6117 20.5574 10.6117C20.5565 10.6117 20.5561 10.6117 20.5562 10.6117C20.5562 10.6117 20.5564 10.6117 20.5567 10.6117C20.5571 10.6117 20.5577 10.6117 20.5585 10.6118C20.5597 10.6118 20.5635 10.6119 20.5687 10.6121C20.5703 10.6122 20.5872 10.6129 20.6089 10.6147C20.6127 10.615 20.6529 10.6181 20.7029 10.6272C20.7176 10.63 20.753 10.6377 20.7735 10.6427C20.804 10.6511 20.8833 10.6779 20.9316 10.698C21.0186 10.7421 21.2616 10.9361 21.3884 11.1088C21.5141 11.4725 21.3813 12.1253 21.1971 12.3503C21.0942 12.4323 20.9217 12.5284 20.8604 12.5526C20.8243 12.5648 20.7639 12.5817 20.7399 12.5874C20.6952 12.5972 20.6598 12.6018 20.6476 12.6033C20.6184 12.6069 20.5956 12.6084 20.5897 12.6088C20.5734 12.6098 20.561 12.6102 20.5591 12.6103C20.5523 12.6105 20.5485 12.6105 20.5517 12.6105C20.5793 12.6101 20.6902 12.6096 20.9832 12.6096V10.6096C20.6976 10.6096 20.5685 10.61 20.5225 10.6107C20.5164 10.6108 20.5061 10.611 20.4949 10.6113C20.4908 10.6114 20.4768 10.6119 20.4594 10.613C20.453 10.6134 20.4297 10.615 20.4003 10.6186C20.3879 10.6202 20.3524 10.6247 20.3077 10.6346C20.2836 10.6403 20.2232 10.6572 20.1871 10.6694C20.1257 10.6936 19.9532 10.7897 19.8503 10.8718C19.6661 11.0968 19.5333 11.7495 19.659 12.1133C19.7858 12.2859 20.0288 12.48 20.1159 12.5241C20.1641 12.5441 20.2435 12.571 20.274 12.5794C20.2946 12.5844 20.33 12.5921 20.3448 12.5949C20.3949 12.604 20.4355 12.6072 20.4397 12.6075C20.4622 12.6094 20.4804 12.6102 20.4836 12.6103C20.4957 12.6108 20.5063 12.6111 20.5107 12.6112C20.5306 12.6116 20.5595 12.6119 20.5801 12.6122C20.6031 12.6124 20.6251 12.6125 20.6352 12.6126C20.6376 12.6126 20.6399 12.6127 20.6414 12.6127C20.6416 12.6127 20.6427 12.6127 20.644 12.6127C20.6444 12.6127 20.6455 12.6127 20.6462 12.6127C20.6473 12.6127 20.6513 12.6127 20.6541 12.6127C20.6693 12.6124 21.6476 11.6153 20.6897 10.6136C20.6784 10.6132 20.6647 10.6128 20.6622 10.6128C20.6611 10.6128 20.6594 10.6127 20.6588 10.6127C20.6584 10.6127 20.6577 10.6127 20.6574 10.6127C20.6568 10.6127 20.6563 10.6127 20.656 10.6127C20.6554 10.6127 20.6549 10.6127 20.6545 10.6127C20.6514 10.6127 20.6443 10.6126 20.6322 10.6125C20.5832 10.6122 20.4454 10.6114 20.1327 10.6096L20.1217 12.6096ZM19.9832 11.6096V12.1287H21.9832V11.6096H19.9832ZM20.9791 11.1287L19.1421 11.1363L19.1503 13.1362L20.9873 13.1287L20.9791 11.1287ZM9.4105 11.875C9.50186 12.8708 9.50252 12.8708 9.50319 12.8707C9.50342 12.8707 9.50409 12.8706 9.50454 12.8706C9.50546 12.8705 9.50639 12.8704 9.50734 12.8703C9.50923 12.8701 9.5112 12.8699 9.51324 12.8697C9.51732 12.8693 9.52168 12.8688 9.52631 12.8683C9.53558 12.8672 9.54596 12.866 9.55738 12.8644C9.5802 12.8613 9.60736 12.857 9.63824 12.8511C9.69974 12.8395 9.77769 12.8214 9.86672 12.7929C10.0431 12.7366 10.2759 12.6359 10.5096 12.4551C11.0193 12.0606 11.3847 11.4025 11.3847 10.4567H9.38469C9.38469 10.6653 9.34699 10.7718 9.32666 10.8153C9.30745 10.8563 9.29085 10.8693 9.28561 10.8733C9.27578 10.8809 9.26496 10.8856 9.25872 10.8876C9.25641 10.8883 9.25825 10.8875 9.26647 10.886C9.27072 10.8852 9.27695 10.8841 9.2855 10.883C9.28979 10.8824 9.2947 10.8817 9.30028 10.8811C9.30307 10.8808 9.30603 10.8805 9.30917 10.8801C9.31074 10.88 9.31236 10.8798 9.31402 10.8797C9.31485 10.8796 9.31569 10.8795 9.31654 10.8794C9.31697 10.8794 9.31762 10.8793 9.31783 10.8793C9.31848 10.8792 9.31914 10.8792 9.4105 11.875ZM11.3847 10.4567C11.3847 9.43227 10.9027 8.76725 10.353 8.39811C10.1003 8.22843 9.85373 8.13356 9.67305 8.08032C9.5812 8.05326 9.5018 8.03562 9.44071 8.0242C9.41002 8.01846 9.38354 8.01422 9.36195 8.01111C9.35114 8.00955 9.34152 8.00828 9.33316 8.00724C9.32898 8.00672 9.32511 8.00626 9.32157 8.00585C9.31979 8.00564 9.3181 8.00545 9.31649 8.00528C9.31569 8.00519 9.3149 8.0051 9.31414 8.00502C9.31375 8.00498 9.31319 8.00492 9.313 8.0049C9.31245 8.00484 9.3119 8.00478 9.20631 8.99919C9.10072 9.9936 9.10018 9.99354 9.09965 9.99348C9.09948 9.99346 9.09894 9.99341 9.0986 9.99337C9.0979 9.99329 9.09723 9.99322 9.09656 9.99315C9.09524 9.993 9.09397 9.99286 9.09276 9.99272C9.09035 9.99244 9.08817 9.99218 9.08622 9.99194C9.08233 9.99145 9.07932 9.99104 9.07714 9.99073C9.07281 9.9901 9.07165 9.98985 9.07318 9.99014C9.07654 9.99076 9.08919 9.9933 9.10781 9.99879C9.14809 10.0107 9.1961 10.0303 9.23801 10.0585C9.27603 10.084 9.30451 10.113 9.32616 10.152C9.34643 10.1886 9.38469 10.2765 9.38469 10.4567H11.3847ZM9.20631 7.99919H7.08262V9.99919H9.20631V7.99919ZM6.08262 8.99919V13.1991H8.08262V8.99919H6.08262ZM7.08262 14.1991H8.14962V12.1991H7.08262V14.1991ZM9.14962 13.1991V12.1858H7.14962V13.1991H9.14962ZM7.41068 12.8595L8.33468 13.8729L9.81257 12.5254L8.88857 11.512L7.41068 12.8595ZM9.07362 14.1991H10.6494V12.1991H9.07362V14.1991ZM11.3796 12.5159L10.1407 11.1918L8.68028 12.5582L9.91915 13.8823L11.3796 12.5159ZM8.99869 10.0156H8.15031V12.0156H8.99869V10.0156ZM9.15031 11.0156V10.0559H7.15031V11.0156H9.15031ZM8.15031 11.0559H9.00625V9.05587H8.15031V11.0559ZM9.00625 10.0559C8.64548 10.9885 8.64485 10.9883 8.64421 10.988C8.644 10.988 8.64337 10.9877 8.64295 10.9875C8.64211 10.9872 8.64127 10.9869 8.64043 10.9866C8.63876 10.9859 8.63709 10.9852 8.63543 10.9846C8.6321 10.9832 8.6288 10.9819 8.62552 10.9806C8.61897 10.9779 8.6125 10.9751 8.60612 10.9723C8.59336 10.9667 8.58086 10.9608 8.56861 10.9547C8.54421 10.9424 8.52021 10.9288 8.49681 10.9136C8.4501 10.883 8.40327 10.8441 8.36164 10.7948C8.26461 10.6797 8.24619 10.5685 8.24619 10.5323H10.2462C10.2462 10.1125 10.1078 9.76312 9.8908 9.5057C9.78919 9.38517 9.68237 9.2991 9.59067 9.23919C9.54478 9.20921 9.50203 9.18535 9.46451 9.16655C9.4457 9.15713 9.42804 9.1489 9.41177 9.14173C9.40363 9.13815 9.39582 9.13483 9.38836 9.13175C9.38462 9.13021 9.38098 9.12873 9.37742 9.12731C9.37564 9.1266 9.37389 9.1259 9.37216 9.12522C9.37129 9.12488 9.37043 9.12454 9.36957 9.12421C9.36914 9.12404 9.36851 9.1238 9.36829 9.12371C9.36766 9.12347 9.36702 9.12322 9.00625 10.0559ZM8.24619 10.5323C8.24619 10.4886 8.26766 10.3802 8.3596 10.2716C8.39874 10.2254 8.44231 10.1891 8.48539 10.1606C8.50704 10.1462 8.52934 10.1333 8.55219 10.1215C8.56366 10.1156 8.57541 10.1099 8.58747 10.1044C8.5935 10.1017 8.59963 10.099 8.60586 10.0963C8.60897 10.095 8.61211 10.0937 8.61528 10.0923C8.61686 10.0917 8.61846 10.091 8.62005 10.0904C8.62085 10.09 8.62165 10.0897 8.62246 10.0894C8.62286 10.0892 8.62346 10.089 8.62366 10.0889C8.62427 10.0886 8.62487 10.0884 8.99938 11.0156C9.37388 11.9428 9.37449 11.9426 9.37509 11.9424C9.3753 11.9423 9.37591 11.942 9.37632 11.9419C9.37713 11.9415 9.37796 11.9412 9.37879 11.9409C9.38045 11.9402 9.38213 11.9395 9.38383 11.9388C9.38723 11.9374 9.39073 11.9359 9.39431 11.9343C9.40147 11.9313 9.40898 11.928 9.41683 11.9244C9.4325 11.9172 9.44956 11.909 9.46777 11.8997C9.50412 11.8809 9.5457 11.8572 9.59049 11.8275C9.67984 11.7683 9.78512 11.6831 9.88596 11.564C10.1013 11.3097 10.2462 10.9596 10.2462 10.5323H8.24619ZM8.99938 10.0156H8.99869V12.0156H8.99938V10.0156ZM13.0157 8.02875H11.9343V10.0287H13.0157V8.02875ZM11.9343 8.02875C11.1706 8.02875 10.6267 8.41843 10.3093 8.86921C10.0215 9.27798 9.89962 9.75566 9.89962 10.1246H11.8996C11.8996 10.1405 11.8983 10.1438 11.8998 10.135C11.901 10.1271 11.9037 10.1143 11.9085 10.0985C11.919 10.0645 11.9331 10.037 11.9446 10.0207C11.9548 10.0062 11.9545 10.0121 11.9383 10.0212C11.9304 10.0256 11.9232 10.0283 11.9188 10.0294C11.9145 10.0305 11.9186 10.0287 11.9343 10.0287V8.02875ZM9.89962 10.1246V13.2005H11.8996V10.1246H9.89962ZM10.8996 14.2005H11.9845V12.2005H10.8996V14.2005ZM12.9845 13.2005V12.4662H10.9845V13.2005H12.9845ZM11.9845 13.4662H13.0013V11.4662H11.9845V13.4662ZM12.0013 12.4662V13.2005H14.0013V12.4662H12.0013ZM13.0013 14.2005H14.0504V12.2005H13.0013V14.2005ZM15.0504 13.2005V10.1246H13.0504V13.2005H15.0504ZM15.0504 10.1246C15.0504 9.33985 14.6912 8.77014 14.2179 8.42942C13.7994 8.12818 13.329 8.02875 13.0157 8.02875V10.0287C12.9904 10.0287 12.9799 10.0267 12.9838 10.0273C12.986 10.0276 12.9934 10.029 13.0037 10.0321C13.0267 10.039 13.0426 10.0477 13.0494 10.0526C13.0528 10.055 13.0463 10.0506 13.0413 10.041C13.0395 10.0376 13.0412 10.0395 13.0436 10.0499C13.0462 10.0607 13.0504 10.0845 13.0504 10.1246H15.0504ZM13.0013 10.2734H11.9769V12.2734H13.0013V10.2734ZM12.9769 11.2734V10.2566H10.9769V11.2734H12.9769ZM11.9769 10.2566C12.9769 10.2566 12.9769 10.2573 12.9769 10.2581C12.9769 10.2583 12.9769 10.259 12.9769 10.2595C12.9769 10.2604 12.9769 10.2614 12.9769 10.2623C12.9769 10.2642 12.9769 10.2661 12.9769 10.268C12.9768 10.2719 12.9768 10.2757 12.9767 10.2795C12.9765 10.2872 12.9762 10.2949 12.9758 10.3026C12.9751 10.3181 12.9739 10.334 12.9722 10.3503C12.9688 10.3826 12.9632 10.4184 12.9539 10.4567C12.9356 10.5318 12.8997 10.6304 12.8271 10.7298C12.7502 10.8351 12.6486 10.9182 12.5358 10.9697C12.4286 11.0186 12.3456 11.0236 12.3173 11.0236V9.02356C11.8928 9.02356 11.478 9.18592 11.2118 9.55044C11.0968 9.70804 11.0395 9.86494 11.0106 9.98375C10.996 10.0439 10.9877 10.0978 10.983 10.1429C10.9806 10.1656 10.9791 10.1865 10.9782 10.2054C10.9777 10.2149 10.9774 10.2239 10.9772 10.2324C10.9771 10.2367 10.9771 10.2408 10.977 10.2449C10.977 10.2469 10.977 10.2489 10.977 10.2508C10.9769 10.2518 10.9769 10.2528 10.9769 10.2538C10.9769 10.2542 10.9769 10.255 10.9769 10.2552C10.9769 10.2559 10.9769 10.2566 11.9769 10.2566ZM12.3173 11.0236H12.6899V9.02356H12.3173V11.0236ZM12.6899 11.0236C12.6314 11.0236 12.5261 11.0113 12.4053 10.9492C12.2823 10.8859 12.1876 10.7936 12.1226 10.6965C12.0616 10.6053 12.0323 10.5191 12.0173 10.458C12.0095 10.4261 12.0044 10.3963 12.0011 10.3692C11.9994 10.3554 11.9981 10.342 11.9971 10.3287C11.9966 10.3221 11.9962 10.3155 11.9958 10.3089C11.9956 10.3056 11.9955 10.3023 11.9953 10.299C11.9953 10.2973 11.9952 10.2957 11.9951 10.294C11.9951 10.2932 11.9951 10.2924 11.995 10.2915C11.995 10.2911 11.995 10.2905 11.995 10.2903C11.995 10.2897 11.995 10.2891 12.9944 10.2566C13.9939 10.2242 13.9939 10.2236 13.9939 10.2229C13.9939 10.2227 13.9938 10.2221 13.9938 10.2217C13.9938 10.2208 13.9938 10.22 13.9937 10.2191C13.9937 10.2174 13.9936 10.2157 13.9935 10.2139C13.9934 10.2104 13.9932 10.2068 13.993 10.203C13.9926 10.1956 13.9921 10.1876 13.9915 10.1793C13.9902 10.1626 13.9885 10.1442 13.986 10.1241C13.9811 10.0842 13.9731 10.0362 13.9599 9.9824C13.9343 9.87758 13.8845 9.73313 13.7844 9.5837C13.5472 9.22932 13.1486 9.02356 12.6899 9.02356V11.0236ZM11.9944 10.2566V11.2734H13.9944V10.2566H11.9944ZM12.9944 12.2734H13.0013V10.2734H12.9944V12.2734ZM14.5448 10.0287H15.6729V8.02875H14.5448V10.0287ZM14.6729 9.02875V13.2005H16.6729V9.02875H14.6729ZM15.6729 12.2005H14.5448V14.2005H15.6729V12.2005ZM15.5448 13.2005V9.02875H13.5448V13.2005H15.5448ZM18.2556 12.1225V9.02875H16.2556V12.1225H18.2556ZM17.2556 8.02875H16.1349V10.0287H17.2556V8.02875ZM15.1349 9.02875V13.2005H17.1349V9.02875H15.1349ZM16.1349 14.2005H18.7743V12.2005H16.1349V14.2005ZM19.7743 13.2005V12.1225H17.7743V13.2005H19.7743ZM18.7743 11.1225H17.2556V13.1225H18.7743V11.1225ZM6.40097 4.62048C5.33298 4.72189 4.25145 5.26621 3.31582 6.00397C2.36709 6.75205 1.49237 7.75755 0.845042 8.90124L2.58558 9.88639C3.10563 8.96758 3.8101 8.16117 4.55417 7.57447C5.31133 6.97744 6.0362 6.66411 6.59003 6.61152L6.40097 4.62048ZM0.84442 8.90234C0.213412 10.0205 -0.146515 11.0532 -0.349553 11.8116C-0.451228 12.1914 -0.514091 12.5044 -0.55203 12.7276C-0.571012 12.8392 -0.583793 12.9286 -0.59209 12.9929C-0.596239 13.025 -0.599269 13.0509 -0.601394 13.0702C-0.602457 13.0799 -0.603293 13.0879 -0.60393 13.0942C-0.604249 13.0973 -0.604517 13.1 -0.60474 13.1023C-0.604851 13.1035 -0.60495 13.1045 -0.605038 13.1055C-0.605083 13.1059 -0.605124 13.1064 -0.605162 13.1068C-0.605182 13.107 -0.605209 13.1073 -0.605218 13.1074C-0.605244 13.1077 -0.60527 13.1079 0.3905 13.1998C1.38627 13.2917 1.38625 13.292 1.38622 13.2922C1.38621 13.2923 1.38619 13.2925 1.38618 13.2927C1.38615 13.293 1.38612 13.2933 1.3861 13.2935C1.38605 13.294 1.38601 13.2945 1.38598 13.2948C1.38592 13.2954 1.3859 13.2956 1.38592 13.2953C1.38597 13.2949 1.38618 13.2929 1.38658 13.2892C1.38738 13.282 1.38894 13.2684 1.39146 13.2489C1.39651 13.2097 1.40539 13.1468 1.41968 13.0628C1.44827 12.8946 1.49838 12.6428 1.58241 12.3289C1.7508 11.6999 2.05328 10.8296 2.5862 9.88529L0.84442 8.90234ZM10.5303 6.01091L10.555 5.61354L8.55887 5.48921L8.53412 5.88659L10.5303 6.01091ZM10.0556 4.6846C9.91662 4.60462 9.69845 4.50617 9.30046 4.38833L8.73267 6.30604C9.03592 6.39583 9.09688 6.44038 9.05824 6.41815L10.0556 4.6846ZM8.01807 5.29221L7.99676 5.67927L9.99374 5.78923L10.015 5.40217L8.01807 5.29221ZM8.66416 6.67785C8.82178 6.73316 8.97341 6.79346 9.11964 6.85969L9.94473 5.03781C9.7408 4.94546 9.53447 4.86368 9.32634 4.79065L8.66416 6.67785ZM8.00719 7.13808L7.98588 7.51071L9.98262 7.62492L10.0039 7.25229L8.00719 7.13808ZM8.94668 8.56711C9.07391 8.57189 9.19198 8.58682 9.30519 8.61321L9.75919 6.66542C9.50664 6.60655 9.26034 6.57748 9.02182 6.56852L8.94668 8.56711ZM10.5299 7.70695L10.5546 7.34189L8.55923 7.20661L8.53448 7.57167L10.5299 7.70695ZM9.76539 6.29622C9.53951 6.24808 9.31065 6.21526 9.08035 6.19799L8.93078 8.19239C9.07121 8.20292 9.21076 8.22293 9.34849 8.25228L9.76539 6.29622ZM6.94994 6.35819H7.00356V4.35819H6.94994V6.35819ZM7.95898 5.06294L7.8483 4.70475L5.93745 5.29525L6.04814 5.65343L7.95898 5.06294ZM6.89288 4C6.67777 4 6.46416 4.0138 6.24573 4.03879L6.47302 6.02583C6.62722 6.0082 6.76423 6 6.89288 6V4ZM5.40311 5.32482L5.51036 5.67544L7.42289 5.09043L7.31564 4.73981L5.40311 5.32482ZM6.57146 6.37743C6.69666 6.36423 6.82182 6.35783 6.9471 6.35818L6.95278 4.35819C6.75538 4.35763 6.55834 4.36773 6.36179 4.38845L6.57146 6.37743ZM6.26266 7.83201L6.39191 8.23695L8.29721 7.6288L8.16796 7.22387L6.26266 7.83201ZM7.81044 8.81772C7.91536 8.76248 8.02479 8.71625 8.13753 8.67954L7.51822 6.77784C7.29777 6.84963 7.08383 6.94002 6.87868 7.04803L7.81044 8.81772ZM8.78259 7.43118L8.66091 7.04068L6.75147 7.6357L6.87316 8.0262L8.78259 7.43118ZM7.4182 6.38055C7.17726 6.45301 6.9667 6.53705 6.77871 6.62828L7.65191 8.42759C7.74442 8.3827 7.85561 8.33749 7.99417 8.29582L7.4182 6.38055ZM5.54625 5.45409L5.29531 5.04571L3.59131 6.09279L3.84225 6.50116L5.54625 5.45409ZM3.95041 4.69917C3.80924 4.77914 3.65141 4.86929 3.48263 4.9741L4.53774 6.67315C4.67009 6.59096 4.79826 6.51749 4.93622 6.43933L3.95041 4.69917ZM3.16259 6.35426L3.4204 6.76607L5.1156 5.7048L4.85779 5.29299L3.16259 6.35426ZM4.82376 7.06678C4.93676 6.99124 5.05313 6.92085 5.17251 6.85585L4.21599 5.0994C4.04356 5.19331 3.87547 5.29497 3.71224 5.40409L4.82376 7.06678ZM4.9869 9.16068L5.25572 9.58693L6.94741 8.52007L6.6786 8.09382L4.9869 9.16068ZM6.94733 9.58705C6.99689 9.50849 7.06622 9.4207 7.17297 9.30128L5.6819 7.96835C5.54528 8.12118 5.39186 8.30426 5.25579 8.51995L6.94733 9.58705ZM7.27503 8.10416L7.02409 7.70335L5.32891 8.76465L5.57985 9.16546L7.27503 8.10416ZM5.47521 7.52112C5.31585 7.6779 5.16728 7.84706 5.03146 8.02897L6.63404 9.22553C6.70705 9.12774 6.78832 9.03489 6.87779 8.94688L5.47521 7.52112ZM4.38384 11.2906L4.83484 11.6701L6.12254 10.1398L5.67154 9.76028L4.38384 11.2906ZM6.47424 10.9992C6.49181 10.8136 6.52238 10.6294 6.56612 10.4464L4.62088 9.98159C4.55554 10.2551 4.50957 10.5315 4.48314 10.8107L6.47424 10.9992ZM6.24015 9.45121L5.84278 9.11434L4.54947 10.6399L4.94685 10.9768L6.24015 9.45121ZM4.25015 9.55288C4.15341 9.83512 4.09502 10.1114 4.0512 10.3098L6.00417 10.741C6.05385 10.516 6.08896 10.3564 6.1421 10.2014L4.25015 9.55288ZM3.27253 6.99227L2.87516 6.62721L1.52209 8.10004L1.91947 8.4651L3.27253 6.99227ZM1.48154 6.66664C1.33643 6.81593 1.17806 6.98154 1.03024 7.1544L2.55026 8.45423C2.65406 8.33284 2.77482 8.20557 2.91571 8.06061L1.48154 6.66664ZM1.11474 8.54166L1.54099 8.93216L2.89201 7.45746L2.46576 7.06696L1.11474 8.54166ZM3.02225 8.78707C3.12733 8.64411 3.22749 8.51881 3.32843 8.41022L1.86357 7.04853C1.69226 7.23282 1.54217 7.42377 1.41075 7.60255L3.02225 8.78707ZM3.596 7.72938V7.72869H1.596V7.72938H3.596ZM1.27757 9.42792L0.640259 9.18111L-0.0820094 11.0461L0.555303 11.293L1.27757 9.42792ZM-0.642323 9.72512C-0.754573 9.99136 -0.877064 10.3037 -0.942469 10.4881L0.942469 11.1567C0.991189 11.0194 1.09832 10.7446 1.20057 10.5021L-0.642323 9.72512ZM-0.361134 11.755L0.276178 12.0018L0.998447 10.1367L0.361134 9.88992L-0.361134 11.755ZM1.57417 11.419C1.64435 11.231 1.75501 10.9512 1.84166 10.7399L-0.00878373 9.98101C-0.100884 10.2056 -0.219847 10.506 -0.299543 10.7195L1.57417 11.419ZM3.94581 12.0574C3.95825 12.4097 3.99021 12.6998 4.01979 12.9076L5.99984 12.6258C5.97854 12.4761 5.95412 12.2574 5.94456 11.9868L3.94581 12.0574ZM4.6589 13.7031L5.32852 13.954L6.03035 12.0812L5.36073 11.8303L4.6589 13.7031ZM6.65548 12.8001C6.60532 12.575 6.56498 12.3478 6.53459 12.1193L4.55203 12.3829C4.59008 12.669 4.64058 12.9534 4.70339 13.2352L6.65548 12.8001ZM5.90078 11.3171L5.30266 11.0882L4.58772 12.956L5.18584 13.185L5.90078 11.3171Z" fill="black" mask="url(#path-1-inside-1_3_36)"/>
</svg>
